<svg xmlns="http://www.w3.org/2000/svg" viewBox="0 0 64 64" width="64" height="64">
<defs>
<linearGradient id="bg" x1="0" y1="0" x2="1" y2="1"><stop offset="0" stop-color="#25919d"/><stop offset="1" stop-color="#0b2a31"/></linearGradient>
<linearGradient id="gold" x1="0" y1="0" x2="0" y2="1"><stop offset="0" stop-color="#ffc857"/><stop offset="1" stop-color="#ee9c1f"/></linearGradient>
<clipPath id="cap"><rect x="9" y="28" width="46" height="20" rx="10"/></clipPath>
</defs>
<rect width="64" height="64" rx="16" fill="url(#bg)"/>
<g transform="rotate(-32 32 40)">
<g clip-path="url(#cap)"><rect x="9" y="28" width="23" height="20" fill="#f4fbfc"/><rect x="32" y="28" width="23" height="20" fill="url(#gold)"/><rect x="31.4" y="28" width="1.2" height="20" fill="#0b2a31" opacity=".18"/><rect x="9" y="41" width="46" height="7" fill="#0b2a31" opacity=".08"/></g>
<rect x="14" y="31.2" width="13" height="2.6" rx="1.3" fill="#ffffff" opacity=".9"/>
</g>
<polygon points="46.50,9.00 48.79,14.34 54.58,14.87 50.21,18.71 51.50,24.38 46.50,21.40 41.50,24.38 42.79,18.71 38.42,14.87 44.21,14.34" fill="url(#gold)" stroke="#0b2a31" stroke-width="1.6" stroke-linejoin="round" paint-order="stroke"/>
</svg>
